<?xml version="1.0" standalone="no"?>
<!DOCTYPE svg PUBLIC "-//W3C//DTD SVG 20010904//EN"
 "http://www.w3.org/TR/2001/REC-SVG-20010904/DTD/svg10.dtd">
<svg version="1.0" xmlns="http://www.w3.org/2000/svg"
 width="768.000000pt" height="768.000000pt" viewBox="0 0 768.000000 768.000000"
 preserveAspectRatio="xMidYMid meet">

<g transform="translate(0.000000,768.000000) scale(0.100000,-0.100000)"
fill="#000000" stroke="none">
<path d="M5635 5890 c-44 -5 -109 -11 -145 -14 -36 -3 -82 -10 -104 -15 -21
-5 -45 -7 -52 -4 -8 3 -20 1 -27 -4 -6 -5 -26 -10 -44 -11 -18 -1 -53 -11 -78
-22 -26 -11 -62 -20 -81 -20 -19 0 -42 -4 -52 -9 -9 -6 -30 -13 -47 -17 -16
-4 -32 -8 -35 -9 -31 -7 -95 -33 -135 -54 -27 -14 -58 -24 -67 -23 -10 2 -33
-8 -51 -22 -19 -14 -42 -26 -51 -26 -9 0 -30 -10 -46 -21 -19 -14 -36 -20 -51
-16 -16 4 -34 -2 -58 -21 -20 -15 -43 -25 -52 -24 -9 2 -22 -4 -29 -13 -7 -8
-22 -15 -35 -15 -12 0 -30 -9 -40 -20 -10 -11 -26 -20 -35 -20 -9 0 -25 -7
-36 -15 -10 -8 -25 -15 -32 -15 -8 0 -28 -6 -45 -14 -55 -25 -181 -86 -207
-101 -34 -19 -96 -45 -108 -45 -5 0 -39 -13 -75 -30 -37 -16 -75 -30 -86 -30
-18 0 -73 -20 -118 -42 -13 -6 -26 -9 -29 -6 -3 4 -24 -2 -47 -12 -23 -10 -66
-21 -95 -25 -30 -4 -66 -13 -80 -21 -15 -8 -51 -14 -80 -14 -29 0 -65 -6 -81
-14 -23 -13 -121 -25 -326 -42 -114 -9 -162 -14 -205 -20 -25 -3 -82 -7 -128
-9 -45 -1 -99 -6 -120 -10 -20 -5 -46 -10 -57 -12 -11 -2 -36 -6 -55 -9 -19
-2 -62 -8 -95 -14 -33 -5 -91 -14 -130 -18 -38 -5 -86 -14 -105 -19 -19 -6
-57 -18 -85 -26 -27 -9 -76 -19 -108 -22 -31 -4 -60 -11 -63 -16 -3 -5 -16 -9
-28 -9 -13 0 -43 -9 -67 -20 -24 -11 -55 -20 -68 -20 -14 0 -32 -6 -40 -14 -9
-7 -50 -21 -91 -30 -79 -18 -145 -42 -170 -61 -8 -7 -30 -17 -47 -23 -18 -6
-48 -22 -66 -36 -19 -15 -43 -26 -55 -26 -11 0 -27 -9 -34 -19 -7 -10 -33 -29
-56 -41 -23 -12 -46 -27 -50 -34 -4 -6 -25 -23 -47 -38 -22 -14 -51 -38 -65
-51 -67 -68 -144 -157 -175 -203 -55 -84 -135 -233 -135 -252 0 -11 -8 -27
-19 -36 -15 -14 -45 -90 -46 -118 0 -3 -3 -10 -8 -14 -4 -4 -7 -18 -7 -31 0
-14 -5 -34 -11 -45 -6 -11 -13 -46 -16 -77 -2 -31 -11 -95 -18 -143 -9 -62
-10 -99 -4 -123 7 -25 7 -47 -1 -69 -10 -30 -8 -44 8 -86 3 -8 6 -50 7 -92 0
-54 5 -82 17 -95 8 -10 13 -23 11 -30 -5 -12 57 -134 101 -197 14 -22 29 -56
32 -77 4 -21 13 -44 20 -50 7 -6 19 -37 25 -70 6 -32 18 -64 25 -70 8 -6 14
-19 14 -29 0 -9 9 -29 20 -43 11 -14 20 -32 20 -41 0 -9 11 -21 25 -26 17 -6
25 -17 25 -33 0 -14 14 -37 33 -55 17 -17 52 -58 75 -91 24 -34 48 -61 54 -61
15 0 71 -49 83 -72 5 -11 30 -31 54 -45 24 -14 70 -42 102 -63 32 -21 68 -42
81 -45 12 -4 68 -30 124 -56 56 -27 116 -49 133 -49 17 0 43 -7 56 -16 13 -8
39 -17 57 -19 36 -4 68 -10 100 -21 11 -3 55 -8 97 -10 42 -2 117 -6 166 -9
50 -3 98 -6 108 -5 32 1 67 1 80 -1 20 -2 219 11 257 17 19 3 58 7 85 8 28 2
67 10 87 19 20 8 45 13 55 11 10 -3 45 2 78 10 32 9 78 16 100 16 23 0 45 4
51 10 5 5 26 11 46 14 21 2 43 8 50 12 7 5 21 7 31 6 10 -2 24 1 30 6 12 9 56
23 87 27 31 4 106 29 127 43 12 7 26 11 32 8 5 -4 22 -1 38 5 15 6 39 16 53
21 14 5 38 16 53 24 16 8 39 14 51 14 13 0 34 9 47 19 30 23 95 51 103 44 3
-3 38 4 78 16 40 12 90 27 111 33 21 7 47 20 59 30 12 10 34 18 50 18 15 0 37
9 48 20 11 11 31 20 44 20 31 0 85 19 118 42 14 10 37 18 50 18 12 0 41 11 63
23 23 13 65 32 95 41 30 10 62 22 70 27 8 5 22 12 30 15 8 3 28 12 43 20 16 7
40 14 55 14 14 0 34 8 44 17 21 19 114 55 140 55 9 0 22 6 29 14 6 8 26 14 43
14 17 0 45 7 61 16 17 9 37 17 45 18 24 2 164 50 171 58 3 5 18 9 35 11 39 5
100 25 145 48 20 11 52 19 71 19 19 0 38 4 43 9 9 9 74 25 152 38 18 3 37 11
43 18 6 7 20 11 31 8 20 -6 106 14 124 28 6 4 36 12 68 18 31 6 66 15 76 21
11 5 33 10 48 10 16 0 35 6 41 12 7 7 29 13 50 14 37 2 86 16 132 39 14 7 42
16 63 20 20 4 40 11 43 16 3 5 18 9 33 9 16 0 40 9 54 20 14 11 36 20 50 20
13 0 30 6 36 14 7 8 37 22 67 32 30 9 64 25 76 35 11 11 27 19 34 19 7 0 25
10 41 23 15 12 48 33 73 46 25 14 55 35 67 48 12 13 28 23 36 23 8 0 33 20 56
45 23 25 45 45 49 45 4 0 27 23 52 50 24 28 50 50 57 50 7 0 18 18 24 40 8 27
19 42 33 46 12 3 36 31 56 66 19 34 47 80 61 102 15 23 32 59 39 81 15 48 26
77 42 111 7 14 12 50 11 80 -1 29 2 56 7 59 4 3 6 69 4 147 -2 108 1 156 12
197 9 31 13 69 9 88 -3 18 -1 42 5 53 17 31 -17 321 -39 343 -6 6 -11 26 -11
45 0 19 -13 61 -30 94 -16 32 -30 64 -30 71 0 7 -28 55 -62 106 -35 51 -68
102 -75 113 -15 27 -150 168 -160 168 -4 0 -27 23 -51 50 -24 28 -48 50 -54
50 -5 0 -23 11 -40 25 -16 14 -40 25 -54 25 -14 0 -30 10 -39 23 -14 22 -90
67 -121 71 -8 1 -20 8 -26 14 -7 7 -23 12 -37 12 -15 0 -42 10 -60 21 -19 12
-58 27 -85 35 -28 8 -85 23 -126 34 -92 26 -350 62 -365 51 -10 -7 -71 -6
-110 2 -11 3 -56 1 -100 -3z m1037 -605 c94 -12 229 -145 276 -274 28 -77 16
-300 -18 -321 -7 -4 -10 -12 -7 -17 11 -18 -82 -148 -150 -208 -102 -91 -267
-179 -372 -197 -104 -18 -161 -20 -176 -8 -8 7 -21 10 -28 7 -18 -7 -28 0 -70
51 -34 40 -36 45 -32 107 2 42 9 70 19 81 9 8 16 20 16 25 0 15 81 89 99 89 9
0 25 7 36 16 11 8 37 19 58 25 43 11 110 67 130 109 13 26 15 118 3 170 -14
59 -16 202 -4 243 15 52 36 87 53 87 7 0 18 7 25 15 9 11 25 14 54 11 23 -3
62 -8 88 -11z m-4286 -490 c76 -37 111 -128 68 -176 -8 -8 -14 -20 -14 -26 0
-12 -61 -39 -107 -48 -26 -5 -41 -1 -71 21 -57 41 -75 70 -74 122 0 36 6 50
33 78 17 18 41 35 53 37 45 9 84 6 112 -8z m-389 -90 c30 -10 59 -150 38 -184
-3 -6 -8 -21 -10 -33 -3 -13 -11 -27 -18 -33 -8 -5 -17 -22 -20 -37 -9 -34
-50 -74 -97 -94 -62 -27 -173 -53 -225 -54 -163 -2 -234 14 -288 64 -36 33
-48 68 -43 122 9 86 86 141 240 169 48 9 108 25 133 36 25 10 51 19 60 19 8 0
29 6 46 14 18 8 41 17 52 19 20 5 109 -1 132 -8z m5199 -637 c-3 -24 -8 -61
-11 -82 -2 -22 -9 -44 -15 -50 -5 -5 -10 -24 -10 -41 0 -18 -9 -42 -20 -55
-11 -13 -20 -31 -20 -41 0 -10 -5 -21 -10 -24 -6 -4 -20 -27 -32 -52 -12 -24
-27 -47 -35 -50 -7 -3 -13 -11 -13 -19 0 -8 -8 -22 -18 -32 -9 -9 -28 -33 -41
-52 -26 -37 -108 -119 -162 -160 -19 -14 -41 -33 -51 -42 -10 -10 -22 -18 -28
-18 -5 0 -19 -13 -31 -30 -12 -16 -35 -34 -51 -39 -16 -6 -46 -24 -66 -40 -20
-16 -59 -36 -87 -45 -27 -10 -66 -26 -85 -36 -92 -48 -257 -110 -292 -110 -8
0 -21 -9 -31 -20 -9 -11 -27 -20 -40 -20 -13 0 -27 -3 -31 -7 -4 -5 -42 -13
-84 -20 -42 -6 -104 -18 -137 -26 -150 -37 -191 -48 -207 -57 -10 -6 -28 -10
-40 -10 -25 0 -93 -22 -104 -33 -4 -4 -27 -7 -50 -7 -24 0 -58 -6 -76 -14 -18
-8 -53 -19 -78 -26 -25 -7 -63 -18 -85 -25 -22 -8 -55 -17 -74 -20 -19 -4 -54
-18 -79 -31 -25 -13 -54 -24 -66 -24 -12 0 -32 -6 -46 -13 -14 -8 -34 -16 -45
-19 -11 -4 -45 -16 -75 -27 -30 -12 -63 -21 -72 -21 -10 0 -37 -9 -60 -19 -24
-11 -55 -22 -70 -25 -15 -4 -33 -12 -40 -19 -7 -7 -40 -21 -73 -32 -33 -10
-64 -23 -69 -27 -6 -4 -17 -8 -25 -8 -7 0 -37 -11 -65 -24 -87 -42 -123 -56
-141 -56 -9 0 -51 -16 -93 -36 -42 -20 -87 -37 -99 -38 -12 -1 -30 -9 -41 -19
-10 -9 -26 -17 -35 -17 -9 0 -18 -4 -21 -9 -3 -5 -14 -7 -24 -4 -10 2 -26 -5
-36 -16 -13 -14 -31 -21 -56 -21 -21 0 -43 -7 -50 -15 -7 -8 -19 -15 -27 -15
-21 0 -141 -40 -200 -66 -28 -13 -58 -24 -67 -24 -8 0 -18 -4 -21 -10 -3 -6
-17 -10 -29 -10 -13 0 -37 -7 -52 -15 -16 -8 -41 -15 -56 -15 -15 0 -30 -4
-33 -10 -3 -5 -16 -10 -29 -10 -13 0 -38 -8 -56 -17 -35 -17 -101 -34 -133
-34 -10 0 -36 -7 -59 -15 -22 -8 -51 -14 -64 -14 -12 0 -30 -7 -38 -16 -10
-10 -24 -13 -37 -9 -12 4 -31 3 -43 -3 -31 -15 -126 -33 -137 -26 -5 3 -35 0
-67 -7 -61 -13 -92 -17 -162 -24 -25 -2 -67 -8 -95 -12 -57 -10 -357 -8 -425
3 -25 4 -70 7 -101 8 -31 1 -63 6 -70 13 -8 6 -36 14 -64 18 -27 4 -54 10 -60
15 -5 4 -34 10 -63 12 -38 4 -85 21 -165 62 -62 31 -116 56 -120 56 -4 0 -28
16 -54 36 -27 20 -59 42 -73 48 -14 6 -50 37 -81 68 -31 32 -61 58 -68 58 -6
0 -17 12 -24 27 -6 15 -28 43 -47 63 -19 20 -43 52 -53 71 -9 19 -35 59 -57
89 -22 30 -40 62 -40 71 0 9 -9 28 -20 42 -11 14 -20 33 -20 42 0 13 9 10 45
-15 24 -17 63 -39 87 -51 24 -11 61 -29 83 -41 60 -32 74 -38 85 -38 6 0 24
-10 40 -21 17 -13 37 -20 49 -16 11 2 22 -1 24 -7 3 -7 24 -18 48 -25 24 -7
52 -17 62 -22 10 -6 27 -7 37 -4 10 3 45 -5 77 -19 32 -13 74 -25 93 -25 31
-2 58 -4 150 -14 14 -1 30 -5 36 -9 5 -4 57 -5 115 -3 64 3 117 0 137 -8 25
-8 37 -8 51 0 10 7 28 9 40 6 11 -3 29 -2 38 3 10 4 36 9 58 11 85 5 121 10
148 21 16 7 47 12 70 12 24 0 52 7 63 15 12 8 24 12 27 9 7 -8 117 15 142 29
40 23 454 71 513 61 18 -4 38 -2 45 3 6 6 28 9 47 7 138 -12 328 -2 383 21 20
8 46 15 58 15 11 0 34 11 51 25 16 14 37 25 47 25 10 0 26 9 36 20 10 11 23
20 30 20 7 0 27 14 46 30 56 49 65 56 82 63 9 3 17 13 17 21 0 8 17 20 38 26
20 7 44 18 52 25 8 7 39 25 69 39 50 24 64 25 200 26 80 0 178 -4 216 -9 84
-11 209 -16 222 -8 5 3 49 11 99 17 49 7 94 18 99 25 6 7 22 15 35 17 14 1 29
13 35 26 5 12 13 22 18 22 25 0 167 150 167 176 0 4 8 17 19 28 10 12 35 53
56 91 20 39 52 85 70 103 19 18 42 46 52 63 10 16 29 32 43 35 31 7 90 36 90
45 0 4 15 10 34 13 19 4 55 18 80 32 28 15 53 23 68 19 13 -3 51 1 85 8 76 16
542 13 574 -3 11 -6 25 -8 31 -4 7 5 42 9 78 11 108 4 273 31 315 52 22 11 65
31 95 46 121 59 170 95 220 162 13 18 31 35 40 38 9 3 29 25 44 50 16 25 35
50 42 56 8 6 14 20 14 30 0 15 35 59 48 59 2 0 1 -19 -2 -42z m-4352 -357 c83
-19 116 -62 131 -171 10 -67 8 -82 -11 -147 -38 -124 -100 -218 -164 -247 -14
-6 -44 -24 -67 -40 -47 -32 -159 -59 -207 -51 -17 3 -67 8 -111 10 -44 3 -102
8 -130 12 -83 11 -107 10 -345 -17 -80 -8 -232 -32 -315 -49 -143 -28 -324
-34 -442 -14 -94 16 -228 57 -253 77 -8 6 -28 18 -43 26 -46 23 -69 72 -73
153 -4 88 13 152 47 186 14 14 28 34 32 43 3 9 19 25 34 35 15 10 33 25 40 34
7 9 34 22 60 28 26 7 56 17 65 22 10 5 29 9 42 9 41 0 130 -23 148 -38 9 -8
35 -15 57 -16 21 -1 45 -7 53 -13 18 -15 148 -58 238 -79 41 -9 125 -18 185
-20 95 -2 121 1 190 23 83 27 148 56 176 79 8 8 22 14 31 14 8 0 26 8 39 18
35 25 89 50 129 58 19 3 41 10 50 14 8 4 31 14 50 24 19 9 62 21 95 27 33 6
65 14 72 17 18 11 142 6 197 -7z"/>
</g>
</svg>
